<mxfile host="app.diagrams.net" modified="2023-12-25T12:17:16.400Z" agent="Mozilla/5.0 (Macintosh; Intel Mac OS X 10.15; rv:120.0) Gecko/20100101 Firefox/120.0" etag="3bgus86eX3S_uCdlcR6Y" version="22.1.11" type="github">
  <diagram name="Page-1" id="mX-OrBulWnp5dGfO1HXV">
    <mxGraphModel dx="1004" dy="676" grid="1" gridSize="10" guides="1" tooltips="1" connect="1" arrows="1" fold="1" page="1" pageScale="1" pageWidth="850" pageHeight="1100" math="0" shadow="0">
      <root>
        <mxCell id="0" />
        <mxCell id="1" parent="0" />
        <mxCell id="-41uTOUO-aYMpCjWxt2I-10" value="FilterContainer" style="swimlane;fontStyle=0;childLayout=stackLayout;horizontal=1;startSize=26;fillColor=none;horizontalStack=0;resizeParent=1;resizeParentMax=0;resizeLast=0;collapsible=1;marginBottom=0;whiteSpace=wrap;html=1;" vertex="1" parent="1">
          <mxGeometry x="40" y="160" width="140" height="52" as="geometry" />
        </mxCell>
        <mxCell id="-41uTOUO-aYMpCjWxt2I-12" value="+ field: type" style="text;strokeColor=none;fillColor=none;align=left;verticalAlign=top;spacingLeft=4;spacingRight=4;overflow=hidden;rotatable=0;points=[[0,0.5],[1,0.5]];portConstraint=eastwest;whiteSpace=wrap;html=1;" vertex="1" parent="-41uTOUO-aYMpCjWxt2I-10">
          <mxGeometry y="26" width="140" height="26" as="geometry" />
        </mxCell>
        <mxCell id="-41uTOUO-aYMpCjWxt2I-22" style="edgeStyle=orthogonalEdgeStyle;rounded=0;orthogonalLoop=1;jettySize=auto;html=1;entryX=1;entryY=0.5;entryDx=0;entryDy=0;" edge="1" parent="1" source="-41uTOUO-aYMpCjWxt2I-14" target="-41uTOUO-aYMpCjWxt2I-10">
          <mxGeometry relative="1" as="geometry" />
        </mxCell>
        <mxCell id="-41uTOUO-aYMpCjWxt2I-14" value="FilterType" style="swimlane;fontStyle=0;childLayout=stackLayout;horizontal=1;startSize=26;fillColor=none;horizontalStack=0;resizeParent=1;resizeParentMax=0;resizeLast=0;collapsible=1;marginBottom=0;whiteSpace=wrap;html=1;" vertex="1" parent="1">
          <mxGeometry x="240" y="160" width="200" height="52" as="geometry" />
        </mxCell>
        <mxCell id="-41uTOUO-aYMpCjWxt2I-25" style="edgeStyle=orthogonalEdgeStyle;rounded=0;orthogonalLoop=1;jettySize=auto;html=1;" edge="1" parent="1" source="-41uTOUO-aYMpCjWxt2I-16" target="-41uTOUO-aYMpCjWxt2I-14">
          <mxGeometry relative="1" as="geometry" />
        </mxCell>
        <mxCell id="-41uTOUO-aYMpCjWxt2I-33" style="edgeStyle=orthogonalEdgeStyle;rounded=0;orthogonalLoop=1;jettySize=auto;html=1;exitX=1;exitY=0.5;exitDx=0;exitDy=0;entryX=0;entryY=0.5;entryDx=0;entryDy=0;" edge="1" parent="1" source="-41uTOUO-aYMpCjWxt2I-16" target="-41uTOUO-aYMpCjWxt2I-26">
          <mxGeometry relative="1" as="geometry">
            <Array as="points">
              <mxPoint x="490" y="346" />
              <mxPoint x="490" y="186" />
            </Array>
          </mxGeometry>
        </mxCell>
        <mxCell id="-41uTOUO-aYMpCjWxt2I-16" value="FilterTypeList" style="swimlane;fontStyle=0;childLayout=stackLayout;horizontal=1;startSize=26;fillColor=none;horizontalStack=0;resizeParent=1;resizeParentMax=0;resizeLast=0;collapsible=1;marginBottom=0;whiteSpace=wrap;html=1;" vertex="1" parent="1">
          <mxGeometry x="250" y="320" width="180" height="52" as="geometry" />
        </mxCell>
        <mxCell id="-41uTOUO-aYMpCjWxt2I-17" value="+ renderItem: ReactNode" style="text;strokeColor=none;fillColor=none;align=left;verticalAlign=top;spacingLeft=4;spacingRight=4;overflow=hidden;rotatable=0;points=[[0,0.5],[1,0.5]];portConstraint=eastwest;whiteSpace=wrap;html=1;" vertex="1" parent="-41uTOUO-aYMpCjWxt2I-16">
          <mxGeometry y="26" width="180" height="26" as="geometry" />
        </mxCell>
        <mxCell id="-41uTOUO-aYMpCjWxt2I-24" style="edgeStyle=orthogonalEdgeStyle;rounded=0;orthogonalLoop=1;jettySize=auto;html=1;" edge="1" parent="1" source="-41uTOUO-aYMpCjWxt2I-18" target="-41uTOUO-aYMpCjWxt2I-14">
          <mxGeometry relative="1" as="geometry" />
        </mxCell>
        <mxCell id="-41uTOUO-aYMpCjWxt2I-18" value="FilterTypeItem" style="swimlane;fontStyle=0;childLayout=stackLayout;horizontal=1;startSize=26;fillColor=none;horizontalStack=0;resizeParent=1;resizeParentMax=0;resizeLast=0;collapsible=1;marginBottom=0;whiteSpace=wrap;html=1;" vertex="1" parent="1">
          <mxGeometry x="245" y="20" width="190" height="52" as="geometry" />
        </mxCell>
        <mxCell id="-41uTOUO-aYMpCjWxt2I-19" value="+ right: (item) =&amp;gt; ReactNode" style="text;strokeColor=none;fillColor=none;align=left;verticalAlign=top;spacingLeft=4;spacingRight=4;overflow=hidden;rotatable=0;points=[[0,0.5],[1,0.5]];portConstraint=eastwest;whiteSpace=wrap;html=1;" vertex="1" parent="-41uTOUO-aYMpCjWxt2I-18">
          <mxGeometry y="26" width="190" height="26" as="geometry" />
        </mxCell>
        <mxCell id="-41uTOUO-aYMpCjWxt2I-26" value="FilterTypeTree" style="swimlane;fontStyle=0;childLayout=stackLayout;horizontal=1;startSize=26;fillColor=none;horizontalStack=0;resizeParent=1;resizeParentMax=0;resizeLast=0;collapsible=1;marginBottom=0;whiteSpace=wrap;html=1;" vertex="1" parent="1">
          <mxGeometry x="520" y="160" width="200" height="52" as="geometry" />
        </mxCell>
        <mxCell id="-41uTOUO-aYMpCjWxt2I-27" value="+ " style="text;strokeColor=none;fillColor=none;align=left;verticalAlign=top;spacingLeft=4;spacingRight=4;overflow=hidden;rotatable=0;points=[[0,0.5],[1,0.5]];portConstraint=eastwest;whiteSpace=wrap;html=1;" vertex="1" parent="-41uTOUO-aYMpCjWxt2I-26">
          <mxGeometry y="26" width="200" height="26" as="geometry" />
        </mxCell>
        <mxCell id="-41uTOUO-aYMpCjWxt2I-30" style="edgeStyle=orthogonalEdgeStyle;rounded=0;orthogonalLoop=1;jettySize=auto;html=1;entryX=0.5;entryY=0;entryDx=0;entryDy=0;" edge="1" parent="1" source="-41uTOUO-aYMpCjWxt2I-28" target="-41uTOUO-aYMpCjWxt2I-26">
          <mxGeometry relative="1" as="geometry" />
        </mxCell>
        <mxCell id="-41uTOUO-aYMpCjWxt2I-28" value="FilterTypeTreeItem" style="swimlane;fontStyle=0;childLayout=stackLayout;horizontal=1;startSize=26;fillColor=none;horizontalStack=0;resizeParent=1;resizeParentMax=0;resizeLast=0;collapsible=1;marginBottom=0;whiteSpace=wrap;html=1;" vertex="1" parent="1">
          <mxGeometry x="525" y="20" width="190" height="52" as="geometry" />
        </mxCell>
        <mxCell id="-41uTOUO-aYMpCjWxt2I-29" value="+ right: (item) =&amp;gt; ReactNode" style="text;strokeColor=none;fillColor=none;align=left;verticalAlign=top;spacingLeft=4;spacingRight=4;overflow=hidden;rotatable=0;points=[[0,0.5],[1,0.5]];portConstraint=eastwest;whiteSpace=wrap;html=1;" vertex="1" parent="-41uTOUO-aYMpCjWxt2I-28">
          <mxGeometry y="26" width="190" height="26" as="geometry" />
        </mxCell>
      </root>
    </mxGraphModel>
  </diagram>
</mxfile>
